<?xml version="1.0" encoding="UTF-8" standalone="no"?> <svg width="64" height="64" viewBox="0 0 64 64" fill="none" xmlns="http://www.w3.org/2000/svg">
<path d="M60.9201 21.4L47.2601 10.81C46.9949 10.6102 46.6722 10.5014 46.3401 10.5H35.5801V4C35.5801 3.60218 35.422 3.22064 35.1407 2.93934C34.8594 2.65804 34.4779 2.5 34.0801 2.5H27.7501C27.3523 2.5 26.9707 2.65804 26.6894 2.93934C26.4081 3.22064 26.2501 3.60218 26.2501 4V10.5H4.00008C3.73641 10.4988 3.47715 10.5676 3.24876 10.6994C3.02037 10.8311 2.83103 11.0211 2.70008 11.25C2.56732 11.4758 2.49731 11.733 2.49731 11.995C2.49731 12.257 2.56732 12.5142 2.70008 12.74L8.32008 22.58L2.70008 32.42C2.56744 32.6477 2.49756 32.9065 2.49756 33.17C2.49756 33.4335 2.56744 33.6923 2.70008 33.92C2.83259 34.1475 3.02227 34.3364 3.25031 34.4679C3.47834 34.5995 3.73682 34.6692 4.00008 34.67H26.2501V60C26.2501 60.3978 26.4081 60.7794 26.6894 61.0607C26.9707 61.342 27.3523 61.5 27.7501 61.5H34.0801C34.4779 61.5 34.8594 61.342 35.1407 61.0607C35.422 60.7794 35.5801 60.3978 35.5801 60V34.67H46.3401C46.6739 34.6694 46.9979 34.5567 47.2601 34.35L60.9201 23.77C61.0991 23.6287 61.2437 23.4486 61.3431 23.2434C61.4425 23.0381 61.4942 22.8131 61.4942 22.585C61.4942 22.3569 61.4425 22.1319 61.3431 21.9266C61.2437 21.7214 61.0991 21.5413 60.9201 21.4V21.4ZM29.2501 5.5H32.5801V10.5H29.2501V5.5ZM32.5801 58.5H29.2501V34.67H32.5801V58.5ZM45.8301 31.67H6.58008L11.3501 23.33C11.478 23.1025 11.5452 22.846 11.5452 22.585C11.5452 22.324 11.478 22.0675 11.3501 21.84L6.58008 13.5H45.8301L57.5501 22.58L45.8301 31.67Z" fill="black"/>
</svg>
